<?xml version="1.0" encoding="UTF-8" standalone="no"?>
<svg
   xmlns:dc="http://purl.org/dc/elements/1.1/"
   xmlns:cc="http://creativecommons.org/ns#"
   xmlns:rdf="http://www.w3.org/1999/02/22-rdf-syntax-ns#"
   xmlns:svg="http://www.w3.org/2000/svg"
   xmlns="http://www.w3.org/2000/svg"
   version="1.0"
   width="1208.000000pt"
   height="415.000000pt"
   viewBox="0 0 1208.000000 415.000000"
   preserveAspectRatio="xMidYMid meet"
   id="svg32">
  <defs
     id="defs36">
    <filter
       style="color-interpolation-filters:sRGB;"
       id="filter62">
      <feColorMatrix
         values="1 0 0 0 0 0 1 0 0 0 0 0 1 0 0 -0.21 -0.72 -0.07 2 0 "
         result="fbSourceGraphic"
         id="feColorMatrix60" />
      <feColorMatrix
         result="fbSourceGraphicAlpha"
         in="fbSourceGraphic"
         values="0 0 0 -1 0 0 0 0 -1 0 0 0 0 -1 0 0 0 0 1 0"
         id="feColorMatrix64" />
      <feColorMatrix
         id="feColorMatrix66"
         values="1 0 0 0 0 0 1 0 0 0 0 0 1 0 0 -0.21 -0.72 -0.07 2 0 "
         result="fbSourceGraphic"
         in="fbSourceGraphic" />
      <feColorMatrix
         result="fbSourceGraphicAlpha"
         in="fbSourceGraphic"
         values="0 0 0 -1 0 0 0 0 -1 0 0 0 0 -1 0 0 0 0 1 0"
         id="feColorMatrix68" />
      <feColorMatrix
         id="feColorMatrix70"
         type="hueRotate"
         values="180"
         result="color1"
         in="fbSourceGraphic" />
      <feColorMatrix
         id="feColorMatrix72"
         values="-1 0 0 0 1 0 -1 0 0 1 0 0 -1 0 1 -0.21 -0.72 -0.07 2 0 "
         result="color2" />
    </filter>
  </defs>
  <metadata
     id="metadata2">
Created by potrace 1.14, written by Peter Selinger 2001-2017
<rdf:RDF>
  <cc:Work
     rdf:about="">
    <dc:format>image/svg+xml</dc:format>
    <dc:type
       rdf:resource="http://purl.org/dc/dcmitype/StillImage" />
    <dc:title></dc:title>
  </cc:Work>
</rdf:RDF>
</metadata>
  <g
     id="layer4">
    <g
       id="g118"
       transform="translate(3.0837004,6.1674008)"
       style="filter:url(#filter62)">
      <path
         id="path8-8"
         style="stroke-width:0.0999997"
         d="m 477.90137,16 0.29883,83.699707 c 0.4,94.099993 5.9e-4,88.500303 8.10058,105.300303 20.68491,27.56463 45.37158,42.98793 78.08497,42.97414 34.59487,-0.0299 66.21731,-20.20742 78.08496,-42.97414 8.1,-16.8 7.70059,-11.2003 8.10059,-105.300303 L 650.87013,16 h -37.09864 l -0.20069,82.700687 c 0,0 1.28769,77.463453 -2.90038,88.299323 -4.18808,10.83586 -13.09971,17.30019 -26.69971,21.70019 -13.00931,3.26272 -26.55,4.02692 -39.16993,0 -13.6,-4.4 -22.51163,-10.86433 -26.6997,-21.70019 -4.18807,-10.83588 -2.90039,-88.299323 -2.90039,-88.299323 L 515,16 Z" />
      <path
         d="m 1071.2,93.2 c 4.7,9.2 8,12.6 45.3,48.2 28.9,27.5 33,32.1 35.1,39.3 -0.5297,25.29821 -14.0169,27.93672 -26,30.4 -11.8,2.2 -25.3,-2.9 -36.1,-13.7 l -6.4,-6.4 -27.7,22.1 c 0,0 13.7,15.9 22.1,21.4 15.3,10.2 29.6,14.2 47,13.2 34.5064,-3.39953 63.8241,-29.28841 64.5,-61.7 0,-11.4 -0.639,-20.79386 -12.5,-36 l -73.1,-73.6 c -6.0775,-17.519539 8.2617,-26.959788 20.8,-26.2 8.6,0.5 13,2.3 19.7,8.4 l 4.9,4.4 28.1,-22.8 -3.5,-4 c -6.8,-8 -21.3,-17.4 -32.3,-20.9 -51.7309,-10.2617886 -89.8289,37.865537 -69.9,77.9 z"
         id="path4"
         style="fill:#000000;stroke:none;stroke-width:0.1" />
      <path
         d="M 300.5,28 C 274.55,40.55 255.3,62 244.85,87.2375 234.4,112.475 232.75,141.5 242,169.2 c 7.5,22.5 22,42 41.9,56.7 35.1,25.8 83.4,29.1 122.6,8.3 l 9.4141,-4.8 C 416.154,212.86737 415.8667,196.33371 416,179.8 l -7.3,7.4 c -31,31.3 -79.3,32.6 -110.8,3 C 263.6,158 263.4,106.5 297.4,74.3 325.70406,49.204399 367.77991,46.12656 397.1,66.5 L 402,70 V 27.2 l -7.2,-3 C 360.73841,13.18539 330.92133,13.319305 300.5,28 Z"
         id="path6"
         style="fill:#000000;stroke:none;stroke-width:0.1" />
      <path
         d="m 729,248 h 36 v -78 h 26.8 c 19.24559,25.95759 57.7,77.9 57.7,77.9 l 40.5,-0.4 c 0,0 -39.27424,-53.33371 -61,-82.7 13.92881,-5.86804 26.07768,-16.27933 33.9,-29 7.7,-13.2 12,-33.2 10.7,-49.6 -2.4,-29.5 -16.7,-52 -40.1,-62.7 -14.4,-6.6 -15.7,-6.8 -62.2,-7.2 L 729,15.8 Z M 817.2,51.9 c 16.3,6.4 25.1,23.5 23.5,45.7 -1,14.5 -6.6,25.5 -16,32 -18.96094,8.37354 -33.57107,7.39899 -59.7,7.6 V 48.8 c 23.23035,0.387323 34.0084,-1.563749 52.2,3.1 z"
         id="path10"
         style="fill:#000000;stroke:none;stroke-width:0.1" />
      <path
         d="m 951,248 h 36 V 16 h -36 z"
         id="path12"
         style="fill:#000000;stroke:none;stroke-width:0.1" />
      <path
         d="M 14.3,255.7 13,259 H 52.5 L 114.2,107.2 232.2,395 H 271 L 270.1,392.8 113.9,18 Z"
         id="path14"
         style="fill:#000000;stroke:none;stroke-width:0.1" />
      <path
         d="m 957,393 h 17 v -57.3 l 33.9,49.1 34.1,-49.2 V 393 h 17 v -56.7 -56.7 l -51,75.4 -51,-75.4 z"
         id="path16"
         style="fill:#000000;stroke:none;stroke-width:0.1" />
      <path
         id="path24"
         style="fill:#000000;stroke:none;stroke-width:0.133333"
         d="m 553.21094,380 50.5332,68.66602 V 524 h 10.79492 10.79492 V 448.66602 L 675.86719,380 651.33398,380.13281 614.53906,430.125 577.74414,380.13281 Z"
         transform="scale(0.75000002)" />
      <path
         d="m 680,300 c 10,0 20,0 30,0 0,31 0,62 0,93 5.66667,0 11.33333,0 17,0 0,-31 0,-62 0,-93 10,0 20,0 30,0 0,-5 0,-10 0,-15 -25.66667,0 -51.33333,0 -77,0 0,5 0,10 0,15 z"
         id="path26"
         style="fill:#000000;stroke:none;stroke-width:0.1" />
      <path
         d="m 822,393 c 21.66667,0 43.33333,0 65,0 0,-5 0,-10 0,-15 -16,0 -32,0 -48,0 0,-11.33333 0,-22.66667 0,-34 13.33333,0 26.66667,0 40,0 0,-5 0,-10 0,-15 -13.33333,0 -26.66667,0 -40,0 0,-9.66667 0,-19.33333 0,-29 16,0 32,0 48,0 0,-5 0,-10 0,-15 -21.66667,0 -43.33333,0 -65,0 0,36 0,72 0,108 z"
         id="path28"
         style="fill:#000000;stroke:none;stroke-width:0.1" />
      <path
         d="m 1134.8923,320.81372 c 2.1834,4.27398 3.7165,5.85347 21.0447,22.39178 13.4256,12.77545 15.3303,14.91242 16.306,18.25724 -0.2462,11.75256 -6.5118,12.97832 -12.0787,14.12264 -5.4819,1.02206 -11.7533,-1.34719 -16.7706,-6.36446 l -2.9731,-2.97319 -12.8685,10.26683 c 0,0 6.3646,7.38649 10.2668,9.9416 7.1078,4.73851 13.751,6.59673 21.8344,6.13219 16.0304,-1.57929 29.6504,-13.60627 29.9642,-28.66338 0,-5.29608 -0.2967,-9.66007 -5.8069,-16.72419 l -33.9595,-34.1918 c -2.8233,-8.13883 3.838,-12.5243 9.6629,-12.17151 3.9952,0.2323 6.0393,1.06857 9.1518,3.90239 l 2.2763,2.04409 13.0544,-10.59197 c -4.5461,-5.04079 -10.6579,-9.57131 -16.6315,-11.56764 -24.0322,-4.76721 -41.731,17.59083 -32.4727,36.18938 z"
         id="path4-9"
         style="fill:#000000;stroke:none;stroke-width:0.0464558" />
      <path
         d="m 306.5717,321.26599 c 2.1834,4.27398 3.7165,5.85347 21.0447,22.39178 13.4256,12.77545 15.3303,14.91242 16.306,18.25723 -0.2462,11.75257 -6.5118,12.97833 -12.0787,14.12265 -5.4819,1.02206 -11.7533,-1.34719 -16.7706,-6.36446 L 312.1,366.7 299.2315,376.96683 c 0,0 6.3646,7.38649 10.2668,9.9416 7.1078,4.73851 13.751,6.59673 21.8344,6.13219 16.0304,-1.57929 29.6504,-13.60627 29.9642,-28.66338 0,-5.29608 -0.2967,-9.66007 -5.8069,-16.72419 l -33.9595,-34.1918 c -2.8233,-8.13883 3.838,-12.5243 9.6629,-12.17151 3.9952,0.2323 6.0393,1.06857 9.1518,3.90239 l 2.2763,2.04409 13.0544,-10.59197 c -4.54613,-5.04079 -10.65791,-9.57131 -16.6315,-11.56764 -24.0322,-4.76721 -41.731,17.59083 -32.4727,36.18938 z"
         id="path4-9-5"
         style="display:inline;fill:#000000;stroke:none;stroke-width:0.0464558" />
      <path
         d="m 567.5717,321.26599 c 2.1834,4.27398 3.7165,5.85347 21.0447,22.39178 13.4256,12.77545 15.3303,14.91242 16.306,18.25723 -0.2462,11.75257 -6.5118,12.97833 -12.0787,14.12265 -5.4819,1.02206 -11.7533,-1.34719 -16.7706,-6.36446 L 573.1,366.7 560.2315,376.96683 c 0,0 6.3646,7.38649 10.2668,9.9416 7.1078,4.73851 13.751,6.59673 21.8344,6.13219 16.0304,-1.57929 29.6504,-13.60627 29.9642,-28.66338 0,-5.29608 -0.2967,-9.66007 -5.8069,-16.72419 l -33.9595,-34.1918 c -2.8233,-8.13883 3.838,-12.5243 9.6629,-12.17151 3.9952,0.2323 6.0393,1.06857 9.1518,3.90239 l 2.2763,2.04409 13.0544,-10.59197 c -4.54613,-5.04079 -10.65791,-9.57131 -16.6315,-11.56764 -24.0322,-4.76721 -41.731,17.59083 -32.4727,36.18938 z"
         id="path4-9-5-9"
         style="display:inline;fill:#000000;stroke:none;stroke-width:0.0464558" />
    </g>
  </g>
</svg>
