<?xml version="1.0" encoding="UTF-8"?>
<svg width="1208pt" height="415pt" version="1.0" viewBox="0 0 1208 415" xmlns="http://www.w3.org/2000/svg" xmlns:cc="http://creativecommons.org/ns#" xmlns:dc="http://purl.org/dc/elements/1.1/" xmlns:rdf="http://www.w3.org/1999/02/22-rdf-syntax-ns#">
 <defs>
  <filter id="filter62" color-interpolation-filters="sRGB">
   <feColorMatrix result="fbSourceGraphic" values="1 0 0 0 0 0 1 0 0 0 0 0 1 0 0 -0.21 -0.72 -0.07 2 0 "/>
   <feColorMatrix in="fbSourceGraphic" result="fbSourceGraphicAlpha" values="0 0 0 -1 0 0 0 0 -1 0 0 0 0 -1 0 0 0 0 1 0"/>
   <feColorMatrix in="fbSourceGraphic" result="fbSourceGraphic" values="1 0 0 0 0 0 1 0 0 0 0 0 1 0 0 -0.21 -0.72 -0.07 2 0 "/>
   <feColorMatrix in="fbSourceGraphic" result="fbSourceGraphicAlpha" values="0 0 0 -1 0 0 0 0 -1 0 0 0 0 -1 0 0 0 0 1 0"/>
   <feColorMatrix in="fbSourceGraphic" result="color1" type="hueRotate" values="180"/>
   <feColorMatrix result="color2" values="-1 0 0 0 1 0 -1 0 0 1 0 0 -1 0 1 -0.21 -0.72 -0.07 2 0 "/>
  </filter>
 </defs>
 <metadata>Created by potrace 1.14, written by Peter Selinger 2001-2017
  <rdf:RDF>
   <cc:Work rdf:about="">
    <dc:format>image/svg+xml</dc:format>
    <dc:type rdf:resource="http://purl.org/dc/dcmitype/StillImage"/>
    <dc:title/>
   </cc:Work>
  </rdf:RDF>
 </metadata>
 <g transform="translate(3.0837 6.1674)" filter="url(#filter62)">
  <path d="m477.9 16 0.29883 83.7c0.4 94.1 5.9e-4 88.5 8.1006 105.3 20.685 27.565 45.372 42.988 78.085 42.974 34.595-0.0299 66.217-20.207 78.085-42.974 8.1-16.8 7.7006-11.2 8.1006-105.3l0.29883-83.7h-37.099l-0.20069 82.701s1.2877 77.463-2.9004 88.299c-4.1881 10.836-13.1 17.3-26.7 21.7-13.009 3.2627-26.55 4.0269-39.17 0-13.6-4.4-22.512-10.864-26.7-21.7-4.1881-10.836-2.9004-88.299-2.9004-88.299l-0.20069-82.701z" stroke-width=".1"/>
  <g>
   <path d="m1071.2 93.2c4.7 9.2 8 12.6 45.3 48.2 28.9 27.5 33 32.1 35.1 39.3-0.5297 25.298-14.017 27.937-26 30.4-11.8 2.2-25.3-2.9-36.1-13.7l-6.4-6.4-27.7 22.1s13.7 15.9 22.1 21.4c15.3 10.2 29.6 14.2 47 13.2 34.506-3.3995 63.824-29.288 64.5-61.7 0-11.4-0.639-20.794-12.5-36l-73.1-73.6c-6.0775-17.52 8.2617-26.96 20.8-26.2 8.6 0.5 13 2.3 19.7 8.4l4.9 4.4 28.1-22.8-3.5-4c-6.8-8-21.3-17.4-32.3-20.9-51.731-10.262-89.829 37.866-69.9 77.9z"/>
   <path d="m300.5 28c-25.95 12.55-45.2 34-55.65 59.238s-12.1 54.262-2.85 81.962c7.5 22.5 22 42 41.9 56.7 35.1 25.8 83.4 29.1 122.6 8.3l9.4141-4.8c0.2399-16.533-0.0474-33.066 0.0859-49.6l-7.3 7.4c-31 31.3-79.3 32.6-110.8 3-34.3-32.2-34.5-83.7-0.5-115.9 28.304-25.096 70.38-28.173 99.7-7.8l4.9 3.5v-42.8l-7.2-3c-34.062-11.015-63.879-10.881-94.3 3.8z"/>
   <path d="m729 248h36v-78h26.8c19.246 25.958 57.7 77.9 57.7 77.9l40.5-0.4s-39.274-53.334-61-82.7c13.929-5.868 26.078-16.279 33.9-29 7.7-13.2 12-33.2 10.7-49.6-2.4-29.5-16.7-52-40.1-62.7-14.4-6.6-15.7-6.8-62.2-7.2l-42.3-0.5zm88.2-196.1c16.3 6.4 25.1 23.5 23.5 45.7-1 14.5-6.6 25.5-16 32-18.961 8.3735-33.571 7.399-59.7 7.6v-88.4c23.23 0.38732 34.008-1.5637 52.2 3.1z"/>
   <path d="m951 248h36v-232h-36z"/>
   <path d="m14.3 255.7-1.3 3.3h39.5l61.7-151.8 118 287.8h38.8l-0.9-2.2-156.2-374.8z"/>
   <path d="m957 393h17v-57.3l33.9 49.1 34.1-49.2v57.4h17v-113.4l-51 75.4-51-75.4z"/>
   <path transform="scale(.75)" d="m553.21 380 50.533 68.666v75.334h21.59v-75.334l50.533-68.666-24.533 0.13281-36.795 49.992-36.795-49.992z"/>
   <path d="m680 300h30v93h17v-93h30v-15h-77v15z"/>
   <path d="m822 393h65v-15h-48v-34h40v-15h-40v-29h48v-15h-65v108z"/>
   <path d="m1134.9 320.81c2.1834 4.274 3.7165 5.8535 21.045 22.392 13.426 12.775 15.33 14.912 16.306 18.257-0.2462 11.753-6.5118 12.978-12.079 14.123-5.4819 1.0221-11.753-1.3472-16.771-6.3645l-2.9731-2.9732-12.868 10.267s6.3646 7.3865 10.267 9.9416c7.1078 4.7385 13.751 6.5967 21.834 6.1322 16.03-1.5793 29.65-13.606 29.964-28.663 0-5.2961-0.2967-9.6601-5.8069-16.724l-33.96-34.192c-2.8233-8.1388 3.838-12.524 9.6629-12.172 3.9952 0.2323 6.0393 1.0686 9.1518 3.9024l2.2763 2.0441 13.054-10.592c-4.5461-5.0408-10.658-9.5713-16.632-11.568-24.032-4.7672-41.731 17.591-32.473 36.189z"/>
   <path d="m306.57 321.27c2.1834 4.274 3.7165 5.8535 21.045 22.392 13.426 12.775 15.33 14.912 16.306 18.257-0.2462 11.753-6.5118 12.978-12.079 14.123-5.4819 1.0221-11.753-1.3472-16.771-6.3645l-2.9731-2.9732-12.868 10.267s6.3646 7.3865 10.267 9.9416c7.1078 4.7385 13.751 6.5967 21.834 6.1322 16.03-1.5793 29.65-13.606 29.964-28.663 0-5.2961-0.2967-9.6601-5.8069-16.724l-33.96-34.192c-2.8233-8.1388 3.838-12.524 9.6629-12.172 3.9952 0.2323 6.0393 1.0686 9.1518 3.9024l2.2763 2.0441 13.054-10.592c-4.5461-5.0408-10.658-9.5713-16.632-11.568-24.032-4.7672-41.731 17.591-32.473 36.189z"/>
   <path d="m567.57 321.27c2.1834 4.274 3.7165 5.8535 21.045 22.392 13.426 12.775 15.33 14.912 16.306 18.257-0.2462 11.753-6.5118 12.978-12.079 14.123-5.4819 1.0221-11.753-1.3472-16.771-6.3645l-2.9731-2.9732-12.868 10.267s6.3646 7.3865 10.267 9.9416c7.1078 4.7385 13.751 6.5967 21.834 6.1322 16.03-1.5793 29.65-13.606 29.964-28.663 0-5.2961-0.2967-9.6601-5.8069-16.724l-33.96-34.192c-2.8233-8.1388 3.838-12.524 9.6629-12.172 3.9952 0.2323 6.0393 1.0686 9.1518 3.9024l2.2763 2.0441 13.054-10.592c-4.5461-5.0408-10.658-9.5713-16.632-11.568-24.032-4.7672-41.731 17.591-32.473 36.189z"/>
  </g>
 </g>
</svg>
